<?xml version="1.0" encoding="UTF-8"?>
<svg xmlns="http://www.w3.org/2000/svg" xmlns:xlink="http://www.w3.org/1999/xlink" width="48px" height="48px" viewBox="0 0 48 48" version="1.1">
    <title>Icone-perfil</title>
    <g id="Home" stroke="none" stroke-width="1" fill="none" fill-rule="evenodd">
        <g id="Icone-perfil">
            <rect id="Container" x="0" y="0" width="48" height="48"/>
            <g id="Group-7" transform="translate(11.000000, 11.000000)" stroke="#444444">
                <path d="M3,21.9996199 C5.44990445,18.3452645 9.24286104,16 13.5001911,16 C17.757139,16 21.5500956,18.3452645 24,22" id="Stroke-1" stroke-linecap="round"/>
                <path d="M19,10.5 C19,13.5374667 16.5374667,16 13.5,16 C10.4625333,16 8,13.5374667 8,10.5 C8,7.46253333 10.4625333,5 13.5,5 C16.5374667,5 19,7.46253333 19,10.5 Z" id="Stroke-3"/>
                <path d="M27,13.5 C27,20.9560135 20.9560135,27 13.5,27 C6.04398649,27 0,20.9560135 0,13.5 C0,6.04398649 6.04398649,0 13.5,0 C20.9560135,0 27,6.04398649 27,13.5 Z" id="Stroke-5"/>
            </g>
        </g>
    </g>
</svg>
